:FULLY-SPECIFIED
:FORCE-ALL-JOINTS-BE-3DOF
:DEGREES
408
root 7.14154 13.8026 -34.2129 157.688 74.9647 151.751
lfemur 16.5806 -3.21921 -10.8227
ltibia 26.0911 0 0
lfoot -23.3226 33.2409 0
ltoes -24.6261 0 0
rfemur -65.5099 -15.1993 7.38559
rtibia 76.7588 0 0
rfoot -12.157 13.6985 0
rtoes 9.61114 0 0
lowerback 8.91294 4.89206 -11.8386
upperback -2.39158 5.10076 -1.29336
thorax -8.54597 3.05659 4.36383
lowerneck 0.338008 -11.6318 -11.152
upperneck 2.84352 -15.773 9.14626
head 2.41816 -7.88596 3.9687
lclavicle -4.10805e-14 1.19374e-14 0
lhumerus -69.8974 -20.5832 106.716
lradius 100.309 0 0
lwrist 51.0553 0 0
lhand -11.0175 42.8046 0
lfingers 7.12502 0 0
lthumb 15.0031 72.2327 0
rclavicle -4.10805e-14 1.19374e-14 0
rhumerus 49.9193 -4.86215 -61.0706
rradius 19.3627 0 0
rwrist 21.1363 0 0
rhand -21.2212 -32.9556 0
rfingers 7.12502 0 0
rthumb 5.16047 -62.8645 0
409
root 7.14822 13.7999 -34.2201 157.882 75.0031 151.916
lfemur 16.7335 -3.15564 -10.7683
ltibia 25.9417 0 0
lfoot -23.3543 33.2476 0
ltoes -24.8301 0 0
rfemur -65.5762 -15.289 7.47933
rtibia 76.9551 0 0
rfoot -12.3198 13.617 0
rtoes 9.61162 0 0
lowerback 8.85571 4.882 -11.797
upperback -2.40832 5.09971 -1.27365
thorax -8.52871 3.05446 4.36569
lowerneck 0.335293 -11.6182 -11.1608
upperneck 2.88184 -15.7556 9.13758
head 2.42703 -7.8771 3.96674
lclavicle -3.87091e-14 1.13392e-14 0
lhumerus -69.9134 -20.5315 106.706
lradius 100.287 0 0
lwrist 51.0318 0 0
lhand -10.9176 42.8095 0
lfingers 7.12502 0 0
lthumb 15.0994 72.2306 0
rclavicle -3.87091e-14 1.13392e-14 0
rhumerus 49.8894 -4.77194 -60.9827
rradius 19.3827 0 0
rwrist 20.9732 0 0
rhand -21.2491 -32.9687 0
rfingers 7.12502 0 0
rthumb 5.13357 -62.8786 0
410
root 7.1549 13.7973 -34.2273 158.116 75.0391 152.108
lfemur 16.9106 -3.08838 -10.7036
ltibia 25.7581 0 0
lfoot -23.382 33.2575 0
ltoes -25.058 0 0
rfemur -65.665 -15.3994 7.58744
rtibia 77.2027 0 0
rfoot -12.5221 13.5321 0
rtoes 9.6026 0 0
lowerback 8.78689 4.87343 -11.7545
upperback -2.42852 5.10195 -1.25417
thorax -8.50902 3.05391 4.36658
lowerneck 0.338791 -11.6069 -11.1734
upperneck 2.92127 -15.7421 9.1347
head 2.43581 -7.87023 3.96683
lclavicle -3.62326e-14 1.07304e-14 0
lhumerus -69.9391 -20.468 106.688
lradius 100.269 0 0
lwrist 51.0033 0 0
lhand -10.8021 42.8173 0
lfingers 7.12502 0 0
lthumb 15.2107 72.2304 0
rclavicle -3.62326e-14 1.07304e-14 0
rhumerus 49.8559 -4.68749 -60.8866
rradius 19.4081 0 0
rwrist 20.7739 0 0
rhand -21.2888 -32.9781 0
rfingers 7.12502 0 0
rthumb 5.09531 -62.8895 0
411
root 7.16157 13.7946 -34.2345 158.391 75.0724 152.329
lfemur 17.1133 -3.01733 -10.6281
ltibia 25.5382 0 0
lfoot -23.4052 33.271 0
ltoes -25.3112 0 0
rfemur -65.7778 -15.5317 7.71074
rtibia 77.5048 0 0
rfoot -12.7664 13.4437 0
rtoes 9.58338 0 0
lowerback 8.70576 4.86648 -11.7112
upperback -2.45237 5.10773 -1.23502
thorax -8.48678 3.05505 4.36644
lowerneck 0.348969 -11.5983 -11.1901
upperneck 2.96177 -15.7331 9.13806
head 2.44447 -7.86551 3.96911
lclavicle -3.36493e-14 1.01116e-14 0
lhumerus -69.9752 -20.392 106.662
lradius 100.256 0 0
lwrist 50.9697 0 0
lhand -10.6701 42.8281 0
lfingers 7.12502 0 0
lthumb 15.3378 72.2324 0
rclavicle -3.36493e-14 1.01116e-14 0
rhumerus 49.8184 -4.60947 -60.7819
rradius 19.439 0 0
rwrist 20.5361 0 0
rhand -21.341 -32.9836 0
rfingers 7.12502 0 0
rthumb 5.04491 -62.8971 0
